<svg xmlns="http://www.w3.org/2000/svg" width="51" height="51" viewBox="0 0 51 51">
  <g id="Group_302" data-name="Group 302" transform="translate(-249 -1267)">
    <g id="Ellipse_1" data-name="Ellipse 1" transform="translate(249 1267)" stroke="#e2b316" stroke-width="2">
      <circle cx="25.5" cy="25.5" r="25.5" stroke="none"/>
      <circle cx="25.5" cy="25.5" r="24.5" fill="none"/>
    </g>
    <path id="Icon_awesome-arrow-left" data-name="Icon awesome-arrow-left" d="M10.747,19.655l-.927.927a1,1,0,0,1-1.415,0L.291,12.471a1,1,0,0,1,0-1.415L8.406,2.942a1,1,0,0,1,1.415,0l.927.927A1,1,0,0,1,10.731,5.3L5.7,10.092h12a1,1,0,0,1,1,1V12.43a1,1,0,0,1-1,1H5.7l5.03,4.792A1,1,0,0,1,10.747,19.655Z" transform="translate(265.152 1280.738)" fill="#fff"/>
  </g>
</svg>
